<svg width="46" height="65" viewBox="0 0 46 65" fill="none" xmlns="http://www.w3.org/2000/svg">
<g id="Group 3">
<path id="Vector" d="M46 2.3V62.1C46 62.71 45.7577 63.295 45.3263 63.7263C44.895 64.1577 44.31 64.4 43.7 64.4H2.3C1.69001 64.4 1.10499 64.1577 0.673659 63.7263C0.242326 63.295 4.39382e-06 62.71 4.39382e-06 62.1V16.1C-0.00104559 15.5626 0.186118 15.0418 0.529004 14.628L12.029 0.828003C12.2453 0.568372 12.5161 0.359579 12.8221 0.21647C13.1282 0.0733619 13.4621 -0.000545706 13.8 3.0334e-06H43.7C44.31 3.0334e-06 44.895 0.242324 45.3263 0.673657C45.7577 1.10499 46 1.69001 46 2.3Z" fill="#D9D9D9"/>
<path id="Vector_2" d="M18.4 3.0334e-06V18.4C18.4 19.01 18.1577 19.595 17.7263 20.0263C17.295 20.4577 16.71 20.7 16.1 20.7H4.39382e-06V16.1C-0.00104559 15.5626 0.186118 15.0418 0.529004 14.628L12.029 0.828003C12.2453 0.568372 12.5161 0.359579 12.8222 0.21647C13.1282 0.0733619 13.4621 -0.000545706 13.8 3.0334e-06H18.4Z" fill="#B4A6A6"/>
</g>
</svg>
