<svg width="24" height="27" viewBox="0 0 24 27" fill="none" xmlns="http://www.w3.org/2000/svg">
<g id="Replace">
<path id="35 Refresh Files" d="M22.98 7.80667L15.76 0.586667C15.3853 0.211487 14.8769 0.000466805 14.3467 0H2.90002C2.36959 0 1.86088 0.210714 1.48581 0.585787C1.11074 0.960859 0.900024 1.46957 0.900024 2V5.33333C0.900024 5.51014 0.970262 5.67971 1.09529 5.80474C1.22031 5.92976 1.38988 6 1.56669 6C1.7435 6 1.91307 5.92976 2.0381 5.80474C2.16312 5.67971 2.23336 5.51014 2.23336 5.33333V2C2.23336 1.82319 2.3036 1.65362 2.42862 1.5286C2.55364 1.40357 2.72321 1.33333 2.90002 1.33333H14.2334V7.33333C14.2334 7.86377 14.4441 8.37247 14.8191 8.74755C15.1942 9.12262 15.7029 9.33333 16.2334 9.33333H22.2334V24.6667C22.2334 24.8435 22.1631 25.013 22.0381 25.1381C21.9131 25.2631 21.7435 25.3333 21.5667 25.3333H2.90002C2.72321 25.3333 2.55364 25.2631 2.42862 25.1381C2.3036 25.013 2.23336 24.8435 2.23336 24.6667V8C2.23336 7.82319 2.16312 7.65362 2.0381 7.5286C1.91307 7.40357 1.7435 7.33333 1.56669 7.33333C1.38988 7.33333 1.22031 7.40357 1.09529 7.5286C0.970262 7.65362 0.900024 7.82319 0.900024 8V24.6667C0.900024 25.1971 1.11074 25.7058 1.48581 26.0809C1.86088 26.456 2.36959 26.6667 2.90002 26.6667H21.5667C22.0971 26.6667 22.6058 26.456 22.9809 26.0809C23.356 25.7058 23.5667 25.1971 23.5667 24.6667V9.22C23.5662 8.68975 23.3552 8.18138 22.98 7.80667ZM15.5667 7.33333V2.27333L21.2934 8H16.2334C16.0565 8 15.887 7.92976 15.762 7.80474C15.6369 7.67971 15.5667 7.51014 15.5667 7.33333ZM14.9 11.3333C15.4305 11.3333 15.9392 11.544 16.3142 11.9191C16.6893 12.2942 16.9 12.8029 16.9 13.3333V17.7267L17.76 16.86C17.8856 16.7345 18.0558 16.6639 18.2334 16.6639C18.4109 16.6639 18.5812 16.7345 18.7067 16.86C18.8322 16.9855 18.9028 17.1558 18.9028 17.3333C18.9028 17.5109 18.8322 17.6811 18.7067 17.8067L16.7067 19.8067C16.6447 19.8692 16.571 19.9187 16.4897 19.9526C16.4085 19.9864 16.3214 20.0039 16.2334 20.0039C16.1453 20.0039 16.0582 19.9864 15.977 19.9526C15.8957 19.9187 15.822 19.8692 15.76 19.8067L13.76 17.8067C13.6345 17.6811 13.564 17.5109 13.564 17.3333C13.564 17.1558 13.6345 16.9855 13.76 16.86C13.8856 16.7345 14.0558 16.6639 14.2334 16.6639C14.4109 16.6639 14.5812 16.7345 14.7067 16.86L15.5667 17.7267V13.3333C15.5667 13.1565 15.4965 12.987 15.3714 12.8619C15.2464 12.7369 15.0768 12.6667 14.9 12.6667H10.2334C10.0565 12.6667 9.88698 12.5964 9.76195 12.4714C9.63693 12.3464 9.56669 12.1768 9.56669 12C9.56669 11.8232 9.63693 11.6536 9.76195 11.5286C9.88698 11.4036 10.0565 11.3333 10.2334 11.3333H14.9ZM14.9 21.3333C14.9 21.5101 14.8298 21.6797 14.7048 21.8047C14.5797 21.9298 14.4102 22 14.2334 22H9.56669C9.03626 22 8.52755 21.7893 8.15248 21.4142C7.7774 21.0391 7.56669 20.5304 7.56669 20V15.6067L6.70669 16.4733C6.64453 16.5355 6.57074 16.5848 6.48952 16.6184C6.40831 16.6521 6.32126 16.6694 6.23336 16.6694C6.14545 16.6694 6.05841 16.6521 5.97719 16.6184C5.89598 16.5848 5.82218 16.5355 5.76002 16.4733C5.69787 16.4112 5.64856 16.3374 5.61492 16.2562C5.58128 16.175 5.56396 16.0879 5.56396 16C5.56396 15.9121 5.58128 15.825 5.61492 15.7438C5.64856 15.6626 5.69787 15.5888 5.76002 15.5267L7.76002 13.5267C7.822 13.4642 7.89573 13.4146 7.97697 13.3807C8.05821 13.3469 8.14535 13.3295 8.23336 13.3295C8.32137 13.3295 8.4085 13.3469 8.48974 13.3807C8.57098 13.4146 8.64471 13.4642 8.70669 13.5267L10.7067 15.5267C10.7692 15.5886 10.8188 15.6624 10.8526 15.7436C10.8865 15.8249 10.9039 15.912 10.9039 16C10.9039 16.088 10.8865 16.1751 10.8526 16.2564C10.8188 16.3376 10.7692 16.4114 10.7067 16.4733C10.6447 16.5358 10.571 16.5854 10.4897 16.6193C10.4085 16.6531 10.3214 16.6705 10.2334 16.6705C10.1453 16.6705 10.0582 16.6531 9.97697 16.6193C9.89573 16.5854 9.822 16.5358 9.76002 16.4733L8.90002 15.6067V20C8.90002 20.1768 8.97026 20.3464 9.09529 20.4714C9.22031 20.5964 9.38988 20.6667 9.56669 20.6667H14.2334C14.4102 20.6667 14.5797 20.7369 14.7048 20.8619C14.8298 20.987 14.9 21.1565 14.9 21.3333Z" fill="black"/>
</g>
</svg>
