<svg width="31" height="18" viewBox="0 0 31 18" fill="none" xmlns="http://www.w3.org/2000/svg">
<g id="View">
<path id="View_2" d="M15.1 3.96446C12.1471 3.96446 9.73111 6.38046 9.73111 9.33335C9.73111 12.2862 12.1471 14.7022 15.1 14.7022C18.0529 14.7022 20.4689 12.2862 20.4689 9.33335C20.4689 6.38046 18.0529 3.96446 15.1 3.96446ZM15.1 13.36C12.8853 13.36 11.0733 11.548 11.0733 9.33335C11.0733 7.11868 12.8853 5.30668 15.1 5.30668C17.3147 5.30668 19.1267 7.11868 19.1267 9.33335C19.1267 11.548 17.3147 13.36 15.1 13.36ZM29.9987 8.86357L27.1129 5.94424C23.9251 2.7229 19.6636 0.944458 15.1 0.944458C10.5364 0.944458 6.27489 2.7229 3.08711 5.94424L0.201333 8.86357C-0.0671111 9.13201 -0.0671111 9.53468 0.201333 9.80313L3.08711 12.7225C6.27489 15.9438 10.5364 17.7222 15.1 17.7222C19.6636 17.7222 23.9251 15.9438 27.1129 12.7225L29.9987 9.80313C30.2671 9.53468 30.2671 9.13201 29.9987 8.86357ZM26.1733 11.7829C23.2204 14.7358 19.2944 16.38 15.1 16.38C10.9056 16.38 6.97956 14.7358 4.02667 11.7829L1.61067 9.33335L4.02667 6.88379C6.97956 3.9309 10.9056 2.28668 15.1 2.28668C19.2944 2.28668 23.2204 3.9309 26.1733 6.88379L28.5893 9.33335L26.1733 11.7829Z" fill="black"/>
</g>
</svg>
